<svg width="32" height="32" viewBox="0 0 32 32" fill="none" xmlns="http://www.w3.org/2000/svg">
<path d="M23.8685 13.5086L23.32 12.1772C23.32 12.1772 24.5943 9.24005 24.48 9.12576L22.7943 7.44004C22.6743 7.32576 19.8 8.66291 19.8 8.66291L18.4743 8.11434C18.4743 8.11434 17.3028 5.13721 17.1428 5.13721H14.76C14.5943 5.13721 13.5086 8.12576 13.5086 8.12576L12.1829 8.67433C12.1829 8.67433 9.24567 7.40005 9.13138 7.51433L7.4457 9.20005C7.33141 9.31434 8.66863 12.1943 8.66863 12.1943L8.11994 13.52C8.11994 13.52 5.14282 14.6915 5.14282 14.8515V17.2343C5.14282 17.4 8.13138 18.4858 8.13138 18.4858L8.68007 19.8115C8.68007 19.8115 7.40576 22.7486 7.51433 22.8629L9.20002 24.5486C9.31431 24.6629 12.1943 23.32 12.1943 23.32L13.5258 23.8686C13.5258 23.8686 14.6971 26.8458 14.8628 26.8458H17.2458C17.4115 26.8458 18.4972 23.8572 18.4972 23.8572L19.8285 23.3086C19.8285 23.3086 22.76 24.5829 22.8743 24.4743L24.56 22.7886C24.6742 22.6743 23.3314 19.7943 23.3314 19.7943L23.88 18.4686C23.88 18.4686 26.8628 17.2915 26.8628 17.1315V14.7486C26.8571 14.5943 23.8685 13.5086 23.8685 13.5086ZM19.48 16C19.48 17.92 17.92 19.48 16 19.48C14.08 19.48 12.5201 17.92 12.5201 16C12.5201 14.08 14.0857 12.5258 16 12.5258C17.92 12.5201 19.48 14.08 19.48 16Z" stroke="white" stroke-miterlimit="10"/>
</svg>
