<svg width="24" height="24" viewBox="0 0 24 24" fill="none" xmlns="http://www.w3.org/2000/svg">
<path d="M11.9994 3.59844C16.6314 3.59844 20.3994 7.36643 20.3994 11.9984C20.3994 16.6304 16.6314 20.3984 11.9994 20.3984C7.36741 20.3984 3.59941 16.6304 3.59941 11.9984C3.59941 7.36643 7.36741 3.59844 11.9994 3.59844ZM11.9994 2.39844C6.69541 2.39844 2.39941 6.69443 2.39941 11.9984C2.39941 17.3024 6.69541 21.5984 11.9994 21.5984C17.3034 21.5984 21.5994 17.3024 21.5994 11.9984C21.5994 6.69443 17.3034 2.39844 11.9994 2.39844Z" fill="#E5E5E5"/>
<path d="M9.59961 16.7992L14.3996 11.9992L9.59961 7.19922" stroke="white" stroke-miterlimit="10"/>
</svg>
