<svg width="48" height="48" viewBox="0 0 48 48" fill="none" xmlns="http://www.w3.org/2000/svg">
<path d="M9.52301 27.2351C9.52301 28.2884 8.66989 29.1367 7.62137 29.1367C6.56808 29.1367 5.71973 28.2836 5.71973 27.2351V15.5774C5.71973 14.5241 6.57284 13.6758 7.62137 13.6758C8.67466 13.6758 9.52301 14.5289 9.52301 15.5774V27.2351Z" fill="white"/>
<path d="M7.61654 29.8576C6.17244 29.8576 5 28.6851 5 27.241V15.5833C5 14.1392 6.17244 12.9668 7.61654 12.9668C9.06065 12.9668 10.2331 14.1392 10.2331 15.5833V27.241C10.2331 28.6851 9.06065 29.8576 7.61654 29.8576ZM7.61654 14.3966C6.9636 14.3966 6.4298 14.9304 6.4298 15.5833V27.241C6.4298 27.894 6.9636 28.4277 7.61654 28.4277C8.26949 28.4277 8.80328 27.894 8.80328 27.241V15.5833C8.80328 14.9256 8.26949 14.3966 7.61654 14.3966Z" fill="#436D61"/>
<path d="M22.525 27.2351C22.525 28.2884 21.6718 29.1367 20.6233 29.1367C19.57 29.1367 18.7217 28.2836 18.7217 27.2351V15.5774C18.7217 14.5241 19.5748 13.6758 20.6233 13.6758C21.6718 13.6758 22.525 14.5289 22.525 15.5774V27.2351Z" fill="white"/>
<path d="M20.6185 29.8576C19.1744 29.8576 18.002 28.6851 18.002 27.241V15.5833C18.002 14.1392 19.1744 12.9668 20.6185 12.9668C22.0626 12.9668 23.235 14.1392 23.235 15.5833V27.241C23.235 28.6851 22.0626 29.8576 20.6185 29.8576ZM20.6185 14.3966C19.9656 14.3966 19.4318 14.9304 19.4318 15.5833V27.241C19.4318 27.894 19.9656 28.4277 20.6185 28.4277C21.2714 28.4277 21.8052 27.894 21.8052 27.241V15.5833C21.8052 14.9256 21.2714 14.3966 20.6185 14.3966Z" fill="#436D61"/>
<path d="M5.71484 18.4326V15.6302C5.71484 13.5665 7.38771 11.8984 9.44663 11.8984H18.7928C20.8565 11.8984 22.5246 13.5713 22.5246 15.6302V18.4326" fill="white"/>
<path d="M22.5246 19.1476C22.1291 19.1476 21.8097 18.8283 21.8097 18.4327V15.6303C21.8097 13.9669 20.4562 12.6134 18.7928 12.6134H9.44669C7.78335 12.6134 6.4298 13.9669 6.4298 15.6303V18.4327C6.4298 18.8283 6.11048 19.1476 5.7149 19.1476C5.31932 19.1476 5 18.8283 5 18.4327V15.6303C5 13.1758 6.99696 11.1836 9.44669 11.1836H18.7928C21.2473 11.1836 23.2395 13.1806 23.2395 15.6303V18.4327C23.2395 18.8283 22.9202 19.1476 22.5246 19.1476Z" fill="#436D61"/>
<path d="M18.9071 17.2461V41.8673C18.9071 43.1828 17.8443 44.2456 16.5288 44.2456C15.2134 44.2456 14.1506 43.1828 14.1506 41.8673V29.2565L14.0934 28.899V41.8626C14.0934 43.178 13.0306 44.2408 11.7152 44.2408C10.3997 44.2408 9.33691 43.178 9.33691 41.8626V17.2461" fill="white"/>
<path d="M16.5289 44.9605C15.5566 44.9605 14.6892 44.5078 14.1221 43.8072C13.5549 44.5125 12.6875 44.9605 11.7152 44.9605C10.009 44.9605 8.62207 43.5736 8.62207 41.8674V17.2462C8.62207 16.8506 8.94139 16.5312 9.33697 16.5312C9.73255 16.5312 10.0519 16.8506 10.0519 17.2462V41.8674C10.0519 42.7825 10.8001 43.5307 11.7152 43.5307C12.6303 43.5307 13.3786 42.7825 13.3786 41.8674V28.9038C13.3786 28.5321 13.6645 28.2223 14.0363 28.1937C14.408 28.1603 14.7369 28.4225 14.7988 28.7894L14.856 29.1469C14.8608 29.185 14.8656 29.2231 14.8656 29.266V41.8769C14.8656 42.792 15.6138 43.5403 16.5289 43.5403C17.444 43.5403 18.1922 42.792 18.1922 41.8769V17.2462C18.1922 16.8506 18.5116 16.5312 18.9071 16.5312C19.3027 16.5312 19.622 16.8506 19.622 17.2462V41.8674C19.622 43.5736 18.2351 44.9605 16.5289 44.9605Z" fill="#436D61"/>
<path d="M17.4211 7.01769C17.4211 5.19707 15.9437 3.71484 14.1183 3.71484C12.2929 3.71484 10.8154 5.19231 10.8154 7.01769C10.8154 8.84308 12.2929 10.3205 14.1183 10.3205C15.9437 10.3205 17.4211 8.84308 17.4211 7.01769Z" fill="white"/>
<path d="M14.1183 11.0307C11.9021 11.0307 10.1006 9.22918 10.1006 7.01299C10.1006 4.79679 11.9069 3 14.1183 3C16.3298 3 18.1361 4.80155 18.1361 7.01775C18.1361 9.23395 16.3345 11.0355 14.1183 11.0355V11.0307ZM14.1183 4.4298C12.6933 4.4298 11.5304 5.58795 11.5304 7.01775C11.5304 8.44756 12.6885 9.6057 14.1183 9.6057C15.5481 9.6057 16.7063 8.44756 16.7063 7.01775C16.7063 5.58795 15.5481 4.4298 14.1183 4.4298Z" fill="#436D61"/>
<path d="M41.6854 24.6954H27.3301C26.9346 24.6954 26.6152 24.3761 26.6152 23.9805C26.6152 23.5849 26.9346 23.2656 27.3301 23.2656H41.6854C42.081 23.2656 42.4003 23.5849 42.4003 23.9805C42.4003 24.3761 42.081 24.6954 41.6854 24.6954Z" fill="#6F9084"/>
<path d="M38.8831 28.2323C38.702 28.2323 38.5161 28.1608 38.3779 28.0226C38.0967 27.7414 38.0967 27.2886 38.3779 27.0122L41.4091 23.981L38.3779 20.9498C38.0967 20.6686 38.0967 20.2158 38.3779 19.9394C38.6591 19.6582 39.1119 19.6582 39.3883 19.9394L42.9247 23.4758C43.2059 23.757 43.2059 24.2098 42.9247 24.4862L39.3883 28.0226C39.2501 28.1608 39.0642 28.2323 38.8831 28.2323Z" fill="#6F9084"/>
<path d="M30.3375 19.0492H27.3301C26.9346 19.0492 26.6152 18.7299 26.6152 18.3343C26.6152 17.9387 26.9346 17.6194 27.3301 17.6194H30.042L35.4896 12.1718C35.7708 11.8906 36.2235 11.8906 36.4999 12.1718C36.7811 12.453 36.7811 12.9058 36.4999 13.1822L30.8427 18.8395C30.7092 18.9729 30.5281 19.0492 30.3375 19.0492Z" fill="#6F9084"/>
<path d="M36.5141 17.8716C36.1186 17.8716 35.7992 17.5523 35.7992 17.1567V12.8673H31.5098C31.1142 12.8673 30.7949 12.548 30.7949 12.1524C30.7949 11.7568 31.1142 11.4375 31.5098 11.4375H36.5141C36.9097 11.4375 37.229 11.7568 37.229 12.1524V17.1567C37.229 17.5523 36.9097 17.8716 36.5141 17.8716Z" fill="#6F9084"/>
<path d="M35.9948 36.0011C35.8136 36.0011 35.6278 35.9296 35.4896 35.7914L30.042 30.3439H27.3301C26.9346 30.3439 26.6152 30.0245 26.6152 29.629C26.6152 29.2334 26.9346 28.9141 27.3301 28.9141H30.3375C30.5281 28.9141 30.7092 28.9903 30.8427 29.1238L36.4999 34.781C36.7811 35.0622 36.7811 35.515 36.4999 35.7914C36.3617 35.9296 36.1759 36.0011 35.9948 36.0011Z" fill="#6F9084"/>
<path d="M36.5141 36.5201H31.5098C31.1142 36.5201 30.7949 36.2007 30.7949 35.8052C30.7949 35.4096 31.1142 35.0903 31.5098 35.0903H35.7992V30.8008C35.7992 30.4053 36.1186 30.0859 36.5141 30.0859C36.9097 30.0859 37.229 30.4053 37.229 30.8008V35.8052C37.229 36.2007 36.9097 36.5201 36.5141 36.5201Z" fill="#6F9084"/>
</svg>
