<svg width="48" height="48" viewBox="0 0 48 48" fill="none" xmlns="http://www.w3.org/2000/svg">
<path d="M33.7083 40.1036C33.7083 38.406 35.4059 31.1062 35.4059 31.1062L36.9337 40.1036" stroke="#436D61" stroke-linecap="round" stroke-linejoin="round"/>
<path d="M11.9787 24.3157C11.9787 24.3157 11.8089 27.3714 12.6578 31.1062L11.9787 24.3157Z" fill="#436D61"/>
<path d="M11.9787 24.3157C11.9787 24.3157 11.8089 27.3714 12.6578 31.1062" stroke="#436D61" stroke-linecap="round" stroke-linejoin="round"/>
<path d="M36.0851 24.3157C36.0851 24.3157 36.2548 27.3714 35.406 31.1062L36.0851 24.3157Z" fill="#436D61"/>
<path d="M36.0851 24.3157C36.0851 24.3157 36.2548 27.3714 35.406 31.1062" stroke="#436D61" stroke-linecap="round" stroke-linejoin="round"/>
<path d="M11.1299 40.1036L12.6577 31.1062C12.6577 31.1062 14.3554 38.406 14.3554 40.1036" stroke="#436D61" stroke-linecap="round" stroke-linejoin="round"/>
<path d="M19.7879 7C19.7879 7 20.8064 9.88596 18.7693 10.565C16.7322 11.2441 11.8091 13.1114 9.60215 14.8091C7.39524 16.5067 6.20691 21.9391 5.86738 25.8436C5.52786 29.7481 4 40.1036 4 40.1036" stroke="#436D61" stroke-linecap="round" stroke-linejoin="round"/>
<path d="M44.0638 40.1036C44.0638 40.1036 42.5359 29.7481 42.1964 25.8436C41.8569 21.9391 40.6685 16.5067 38.4616 14.8091C36.2547 13.1114 31.3316 11.2441 29.2945 10.565C27.2573 9.88596 28.2759 7 28.2759 7" stroke="#436D61" stroke-linecap="round" stroke-linejoin="round"/>
<path d="M18.4297 32.719H29.7189" stroke="#436D61" stroke-linecap="round" stroke-linejoin="round"/>
<path d="M18.4297 38.2363H29.7189" stroke="#436D61" stroke-linecap="round" stroke-linejoin="round"/>
<path d="M24.032 28.9841V40.6128" stroke="#436D61" stroke-linecap="round" stroke-linejoin="round"/>
<path d="M11.2996 19.5625C11.2996 19.5625 11.2996 24.8251 13.846 26.0135C16.3924 27.2018 21.9946 26.6925 21.9946 26.6925" stroke="#436D61" stroke-linecap="round" stroke-linejoin="round"/>
<path d="M36.7641 19.5625C36.7641 19.5625 36.7641 24.8251 34.2177 26.0135C31.6712 27.2018 26.0691 26.6925 26.0691 26.6925" stroke="#436D61" stroke-linecap="round" stroke-linejoin="round"/>
</svg>
