<svg width="48" height="48" viewBox="0 0 48 48" fill="none" xmlns="http://www.w3.org/2000/svg">
<path d="M39.2931 7.62891H9.67383V43.3252H39.2931V7.62891Z" fill="#CBBAA1"/>
<path d="M39.2933 43.994H9.67402C9.30196 43.994 9 43.6921 9 43.32V7.6291C9 7.25704 9.30196 6.95508 9.67402 6.95508H39.2933C39.6654 6.95508 39.9673 7.25704 39.9673 7.6291V43.3254C39.9673 43.6975 39.6654 43.9994 39.2933 43.9994V43.994ZM10.348 42.646H38.6193V8.30313H10.348V42.6514V42.646Z" fill="#436D61"/>
<path d="M36.4083 9.14453H12.5586V39.0388H36.4083V9.14453Z" fill="white"/>
<path d="M37.0825 39.7131H11.8848V8.4707H37.0825V39.7131ZM13.2328 38.365H35.7344V9.81875H13.2328V38.365Z" fill="#436D61"/>
<path d="M26.741 6.18903C26.3743 5.29932 25.5062 4.67383 24.4817 4.67383C23.4571 4.67383 22.589 5.29932 22.2223 6.18903H19.0625V11.9048H29.9008V6.18903H26.741Z" fill="#6F9084"/>
<path d="M30.5799 12.5736H18.3936V5.51521H21.8176C22.373 4.58236 23.3813 4 24.4921 4C25.6029 4 26.6059 4.58236 27.1666 5.51521H30.5907V12.579L30.5799 12.5736ZM19.7416 11.2255H29.2319V6.86325H26.2931L26.1206 6.44805C25.8456 5.78481 25.2039 5.35344 24.4867 5.35344C23.7696 5.35344 23.1279 5.78481 22.8529 6.44805L22.6803 6.86325H19.7416V11.2309V11.2255Z" fill="#436D61"/>
<path d="M32.0406 15.832H16.9316V17.1801H32.0406V15.832Z" fill="#436D61"/>
<path d="M32.0406 19.8848H16.9316V21.2328H32.0406V19.8848Z" fill="#436D61"/>
<path d="M32.0406 23.9414H16.9316V25.2895H32.0406V23.9414Z" fill="#436D61"/>
<path d="M32.0406 27.9902H16.9316V29.3383H32.0406V27.9902Z" fill="#436D61"/>
<path d="M32.0406 32.0449H16.9316V33.393H32.0406V32.0449Z" fill="#436D61"/>
</svg>
