<svg width="133" height="92" viewBox="0 0 133 92" fill="none" xmlns="http://www.w3.org/2000/svg">
<path d="M8.23438 78.125C8.23438 79.3281 7.97917 80.4115 7.46875 81.375C6.96354 82.3385 6.22396 83.1667 5.25 83.8594C4.27604 84.5469 3.10156 85.0833 1.72656 85.4688L1.03125 84.1094C2.17708 83.7969 3.15365 83.3854 3.96094 82.875C4.76823 82.3594 5.38021 81.7682 5.79688 81.1016C6.21354 80.4297 6.42188 79.7057 6.42188 78.9297V78.125H8.23438ZM7.60938 79.5234H1.78906V78.125H7.60938V79.5234ZM12.7578 85.2266H11.0234V77.2812H12.7578V85.2266ZM11.2812 82.1562H8.3125V80.7266H11.2812V82.1562ZM12.7578 91.2109H3.46875V85.8047H12.7578V91.2109ZM5.16406 89.8281H11.0312V87.1719H5.16406V89.8281ZM18.8594 79.8203C18.8594 80.612 18.7344 81.375 18.4844 82.1094C18.2396 82.8385 17.8698 83.4922 17.375 84.0703C16.8802 84.6484 16.2734 85.0911 15.5547 85.3984L14.625 84.0625C15.25 83.7865 15.7786 83.4193 16.2109 82.9609C16.6432 82.5026 16.9635 82.0052 17.1719 81.4688C17.3802 80.9271 17.487 80.3776 17.4922 79.8203V78.1094H18.8594V79.8203ZM19.1719 79.8203C19.1719 80.3672 19.2708 80.8906 19.4688 81.3906C19.6719 81.8854 19.9766 82.3359 20.3828 82.7422C20.7943 83.1484 21.2995 83.4688 21.8984 83.7031L20.9688 85.0312C20.276 84.7552 19.6927 84.3542 19.2188 83.8281C18.7448 83.2969 18.388 82.6901 18.1484 82.0078C17.9141 81.3255 17.7995 80.5964 17.8047 79.8203V78.1094H19.1719V79.8203ZM26.8359 85.8203H25.1797V77.2812H26.8359V85.8203ZM25.6641 82.2266H23.2422V80.7969H25.6641V82.2266ZM23.7734 85.75H22.1562V77.5156H23.7734V85.75ZM26.8359 91.375H25.1172V87.8984H17.1641V86.4922H26.8359V91.375ZM44.2266 84.4141H42.4922V77.2656H44.2266V84.4141ZM39.7344 77.875C39.7344 79.0833 39.4844 80.1432 38.9844 81.0547C38.4896 81.9661 37.7552 82.7266 36.7812 83.3359C35.8125 83.9453 34.6146 84.4115 33.1875 84.7344L32.5938 83.3125C33.7708 83.0625 34.75 82.7188 35.5312 82.2812C36.3125 81.8438 36.8932 81.3307 37.2734 80.7422C37.6536 80.1536 37.8464 79.4974 37.8516 78.7734V77.875H39.7344ZM38.5781 79.2734H33.3594V77.875H38.5781V79.2734ZM42.7188 80.4766H39.1953V79.1406H42.7188V80.4766ZM42.6406 83.1953H39.0859V81.8594H42.6406V83.1953ZM44.2266 88.6875H36.6797V90.6406H34.9531V87.3906H42.4766V86.3359H34.9219V84.9609H44.2266V88.6875ZM44.5859 91.25H34.9531V89.8516H44.5859V91.25ZM53.0859 80.125H46.8516V78.7344H53.0859V80.125ZM50.5469 87.5547H48.8438V82.7734H50.5469V87.5547ZM54.125 79.8359C54.1198 80.7526 54.0938 81.6172 54.0469 82.4297C54 83.2422 53.8932 84.1693 53.7266 85.2109L52.0078 85.0625C52.1693 84.0469 52.2708 83.151 52.3125 82.375C52.3594 81.599 52.3854 80.7474 52.3906 79.8203V79.7266V78.7344H54.125V79.7266V79.8359ZM57.3047 91.375H55.5625V77.2656H57.3047V91.375ZM59.3438 84.4766H56.7969V83.0156H59.3438V84.4766ZM46.0938 87.0312C47.7969 87.0156 49.362 86.9818 50.7891 86.9297C52.2161 86.8724 53.5599 86.7656 54.8203 86.6094L54.9219 87.9062C53.6042 88.1198 52.2188 88.263 50.7656 88.3359C49.3125 88.4036 47.8151 88.4323 46.2734 88.4219L46.0938 87.0312ZM71.1172 91.3672H69.3828V77.2656H71.1172V91.3672ZM73.2109 84.2266H70.6719V82.7891H73.2109V84.2266ZM67.3906 78.7422C67.3854 80.1797 67.1693 81.5182 66.7422 82.7578C66.3151 83.9922 65.625 85.1276 64.6719 86.1641C63.7188 87.2005 62.4844 88.0938 60.9688 88.8438L59.9922 87.5C61.263 86.8594 62.3203 86.125 63.1641 85.2969C64.0078 84.4635 64.638 83.5312 65.0547 82.5C65.4714 81.4635 65.6797 80.3125 65.6797 79.0469V78.7422H67.3906ZM66.5625 80.1719H60.7266V78.7422H66.5625V80.1719ZM80.9062 87.0547H82.7578V85.5391H84.3672V91.2109H79.2891V85.5391H80.9062V87.0547ZM82.7578 89.8828V88.3438H80.9062V89.8828H82.7578ZM88.125 86.5547C88.1302 87.2422 88.026 87.8984 87.8125 88.5234C87.599 89.1484 87.2708 89.7057 86.8281 90.1953C86.3906 90.6901 85.8464 91.0677 85.1953 91.3281L84.3203 90.0234C84.8672 89.8047 85.3255 89.5104 85.6953 89.1406C86.0651 88.7708 86.3385 88.3646 86.5156 87.9219C86.6979 87.4792 86.7917 87.0234 86.7969 86.5547V85.4219H88.125V86.5547ZM88.5312 86.5547C88.526 87.0547 88.612 87.5312 88.7891 87.9844C88.9661 88.4375 89.2422 88.8438 89.6172 89.2031C89.9922 89.5625 90.4609 89.8359 91.0234 90.0234L90.1328 91.3281C89.4557 91.0885 88.8984 90.7292 88.4609 90.25C88.0234 89.7708 87.7031 89.2188 87.5 88.5938C87.2969 87.9635 87.1979 87.2839 87.2031 86.5547V85.4219H88.5312V86.5547ZM88.5312 81.8203H84.875V80.4062H88.5312V81.8203ZM81.6172 77.8359C82.3099 77.8359 82.9375 77.9766 83.5 78.2578C84.0625 78.5339 84.5052 78.9219 84.8281 79.4219C85.151 79.9219 85.3151 80.4896 85.3203 81.125C85.3151 81.7656 85.151 82.3385 84.8281 82.8438C84.5052 83.3438 84.0625 83.737 83.5 84.0234C82.9375 84.3047 82.3099 84.4453 81.6172 84.4453C80.9036 84.4453 80.263 84.3047 79.6953 84.0234C79.1276 83.737 78.6849 83.3438 78.3672 82.8438C78.0495 82.3385 77.8906 81.7656 77.8906 81.125C77.8906 80.4896 78.0495 79.9219 78.3672 79.4219C78.6849 78.9219 79.1276 78.5339 79.6953 78.2578C80.263 77.9766 80.9036 77.8359 81.6172 77.8359ZM81.6172 79.2734C81.2109 79.2734 80.8516 79.3516 80.5391 79.5078C80.2266 79.6589 79.9818 79.875 79.8047 80.1562C79.6276 80.4375 79.5391 80.7604 79.5391 81.125C79.5391 81.5 79.6276 81.8307 79.8047 82.1172C79.9818 82.3984 80.2266 82.6198 80.5391 82.7812C80.8516 82.9375 81.2109 83.0182 81.6172 83.0234C82.0078 83.0182 82.3594 82.9375 82.6719 82.7812C82.9844 82.6198 83.2266 82.3984 83.3984 82.1172C83.5703 81.8307 83.6562 81.5 83.6562 81.125C83.6562 80.7604 83.5703 80.4375 83.3984 80.1562C83.2266 79.875 82.9844 79.6589 82.6719 79.5078C82.3646 79.3516 82.013 79.2734 81.6172 79.2734ZM89.5234 84.7422H87.7891V77.2656H89.5234V84.7422ZM94.7969 87.0859H101.008V85.7344H102.742V91.2109H93.0703V85.7344H94.7969V87.0859ZM101.008 89.8438V88.4141H94.7969V89.8438H101.008ZM104.391 84.9297H91.5312V83.5234H104.391V84.9297ZM98.5703 77.9531C98.5703 78.7552 98.3255 79.4948 97.8359 80.1719C97.3464 80.849 96.6667 81.4167 95.7969 81.875C94.9271 82.3281 93.9375 82.6276 92.8281 82.7734L92.1875 81.4062C93.1458 81.2865 93.9948 81.0547 94.7344 80.7109C95.4792 80.362 96.0521 79.9479 96.4531 79.4688C96.8594 78.9896 97.0651 78.4844 97.0703 77.9531V77.4141H98.5703V77.9531ZM98.8594 77.9531C98.8594 78.4635 99.0625 78.9635 99.4688 79.4531C99.875 79.9375 100.448 80.3568 101.188 80.7109C101.927 81.0651 102.771 81.2969 103.719 81.4062L103.102 82.7734C101.982 82.6276 100.987 82.3255 100.117 81.8672C99.2474 81.4036 98.5703 80.8359 98.0859 80.1641C97.6016 79.487 97.3594 78.75 97.3594 77.9531V77.4141H98.8594V77.9531ZM117.141 91.375H115.414V77.2656H117.141V91.375ZM107.883 87.3828H106.164V78.6328H107.883V87.3828ZM107.375 86.3672C108.51 86.362 109.641 86.3099 110.766 86.2109C111.891 86.112 113.016 85.9505 114.141 85.7266L114.367 87.1719C113.185 87.4167 112.018 87.5911 110.867 87.6953C109.721 87.7995 108.557 87.849 107.375 87.8438H106.164V86.3672H107.375ZM130.242 91.4141H128.508V77.2656H130.242V91.4141ZM132.422 84.0547H129.852V82.625H132.422V84.0547ZM120.922 86.5078C122.234 86.5078 123.385 86.4766 124.375 86.4141C125.365 86.3464 126.365 86.2214 127.375 86.0391L127.57 87.5078C126.539 87.6901 125.523 87.8099 124.523 87.8672C123.523 87.9245 122.323 87.9505 120.922 87.9453H119.758V86.5078H120.922ZM126.367 80.0156H121.492V87.2109H119.758V78.6016H126.367V80.0156Z" fill="#436D61"/>
<circle cx="66" cy="30" r="28" stroke="#6F9084" stroke-width="4"/>
<rect x="64" y="16" width="4" height="23" fill="#6F9084"/>
<rect x="64" y="41" width="4" height="4" fill="#6F9084"/>
</svg>
