<svg width="155" height="56" viewBox="0 0 155 56" fill="none" xmlns="http://www.w3.org/2000/svg">
<path d="M31.5562 40.1542H21.6375V41.7388H31.5562V40.1542Z" fill="#E9E9E9"/>
<path d="M27.8451 38.7573H25.4192V41.2622H27.8451V38.7573Z" fill="#E9E9E9"/>
<path d="M64.9987 40.1542H55.08V41.7388H64.9987V40.1542Z" fill="#E9E9E9"/>
<path d="M61.2876 38.7573H58.8617V41.2622H61.2876V38.7573Z" fill="#E9E9E9"/>
<path d="M98.8858 40.1542H88.967V41.7388H98.8858V40.1542Z" fill="#E9E9E9"/>
<path d="M95.1801 38.7573H92.7488V41.2622H95.1801V38.7573Z" fill="#E9E9E9"/>
<path d="M131.844 47.9272H129.418V55.9946H131.844V47.9272Z" fill="#E9E9E9"/>
<path d="M138.111 47.5298H123.079V49.109H138.111V47.5298Z" fill="#E9E9E9"/>
<path d="M37.7605 43.3397H35.2094V44.9243H37.7605V43.3397Z" fill="#E9E9E9"/>
<path d="M35.7922 39.5684H33.369V50.7069H35.7922V39.5684Z" fill="#E9E9E9"/>
<path d="M26.6908 40.3174C24.0661 40.3174 22.1439 42.147 22.1439 44.4531C22.1439 46.7592 24.0661 48.5889 26.6908 48.5889C29.3155 48.5889 31.2404 46.7565 31.2404 44.4531C31.2404 42.1497 29.3182 40.3174 26.6908 40.3174ZM26.6908 47.1649C25.4574 47.1649 24.5399 45.9751 24.5399 44.4504C24.5399 42.9257 25.4574 41.7332 26.6908 41.7332C27.9242 41.7332 28.8445 42.9311 28.8445 44.4504C28.8445 45.9697 27.9242 47.1649 26.6908 47.1649Z" fill="#E9E9E9"/>
<path d="M71.204 43.3397H68.6555V44.9243H71.204V43.3397Z" fill="#E9E9E9"/>
<path d="M69.241 39.5684H66.8151V50.7069H69.241V39.5684Z" fill="#E9E9E9"/>
<path d="M60.1356 40.3174C57.511 40.3174 55.5887 42.147 55.5887 44.4531C55.5887 46.7592 57.5137 48.5889 60.1356 48.5889C62.7576 48.5889 64.6853 46.7565 64.6853 44.4531C64.6853 42.1497 62.763 40.3174 60.1356 40.3174ZM60.1356 47.1649C58.905 47.1649 57.9847 45.9751 57.9847 44.4504C57.9847 42.9257 58.905 41.7332 60.1356 41.7332C61.3663 41.7332 62.2866 42.9311 62.2866 44.4504C62.2866 45.9697 61.3717 47.1649 60.1356 47.1649Z" fill="#E9E9E9"/>
<path d="M47.114 46.171H44.6881V50.8023H47.114V46.171Z" fill="#E9E9E9"/>
<path d="M53.6757 45.7709H38.3361V47.3555H53.6757V45.7709Z" fill="#E9E9E9"/>
<path d="M86.1373 50.7424H72.5156V52.3243H86.1373V50.7424Z" fill="#E9E9E9"/>
<path d="M86.7097 39.4216H84.3246V55.9946H86.7097V39.4216Z" fill="#E9E9E9"/>
<path d="M77.6891 39.4406C75.0481 39.4406 72.7855 41.194 72.7855 43.8132C72.7855 46.4325 75.0481 48.1859 77.6891 48.1859C80.3301 48.1859 82.5872 46.4297 82.5872 43.8132C82.5872 41.1967 80.3274 39.4406 77.6891 39.4406ZM77.6891 46.7374C76.2733 46.7374 75.2468 45.5312 75.2468 43.8132C75.2468 42.0952 76.2733 40.8891 77.6891 40.8891C79.1049 40.8891 80.1313 42.0979 80.1313 43.8132C80.1313 45.5285 79.1049 46.7374 77.6891 46.7374Z" fill="#E9E9E9"/>
<path d="M104.944 42.7188H102.39V44.3062H104.944V42.7188Z" fill="#E9E9E9"/>
<path d="M103.127 39.3972H100.699V48.7741H103.127V39.3972Z" fill="#E9E9E9"/>
<path d="M94.0194 40.3174C91.3948 40.3174 89.5079 42.0136 89.5079 44.2162C89.5079 46.4189 91.3948 48.1151 94.0194 48.1151C96.6441 48.1151 98.5337 46.4216 98.5337 44.2162C98.5337 42.0109 96.6496 40.3174 94.0194 40.3174ZM94.0194 46.6939C92.7888 46.6939 91.9066 45.5395 91.9066 44.2162C91.9066 42.893 92.7861 41.7359 94.0194 41.7359C95.2528 41.7359 96.135 42.8957 96.135 44.2162C96.135 45.5368 95.2528 46.6939 94.0194 46.6939Z" fill="#E9E9E9"/>
<path d="M120.836 39.5684H118.451V50.8648H120.836V39.5684Z" fill="#E9E9E9"/>
<path d="M120.043 41.7577H115.001V43.2905H120.043V41.7577Z" fill="#E9E9E9"/>
<path d="M120.043 44.9866H115.001V46.5195H120.043V44.9866Z" fill="#E9E9E9"/>
<path d="M111.148 39.5877C108.401 39.5877 106.245 41.4446 106.245 43.9631C106.245 46.4816 108.401 48.3357 111.148 48.3357C113.895 48.3357 116.005 46.4761 116.005 43.9631C116.005 41.45 113.887 39.5877 111.148 39.5877ZM111.145 46.8818C109.632 46.8818 108.706 45.5776 108.706 43.9603C108.706 42.3431 109.632 41.0307 111.145 41.0307C112.659 41.0307 113.588 42.3431 113.588 43.9603C113.588 45.5776 112.662 46.8818 111.145 46.8818Z" fill="#E9E9E9"/>
<path d="M145.83 47.5569H143.445V50.7887H145.83V47.5569Z" fill="#E9E9E9"/>
<path d="M154.356 39.5684H151.97V52.2153H154.356V39.5684Z" fill="#E9E9E9"/>
<path d="M150.62 46.9553H139.868V48.4882H150.62V46.9553Z" fill="#E9E9E9"/>
<path d="M153.565 49.4629H148.523V50.9985H153.565V49.4629Z" fill="#E9E9E9"/>
<path d="M144.793 39.3262C142.067 39.3262 140.311 40.8236 140.311 42.7567C140.311 44.6899 142.067 46.1928 144.793 46.1928C147.518 46.1928 149.274 44.6926 149.274 42.7567C149.274 40.8209 147.518 39.3262 144.793 39.3262ZM144.793 44.777C143.494 44.777 142.737 43.7696 142.737 42.7595C142.737 41.7494 143.494 40.7447 144.793 40.7447C146.092 40.7447 146.851 41.7521 146.851 42.7595C146.851 43.7669 146.092 44.777 144.793 44.777Z" fill="#E9E9E9"/>
<path d="M27.132 54.4154C26.8107 54.4154 26.5956 54.214 26.5956 53.8818V50.2797H24.1697V54.0778C24.1697 55.1614 24.8966 56 26.0919 56H35.7765V54.4182H27.132V54.4154Z" fill="#E9E9E9"/>
<path d="M49.1499 41.4662C49.4711 41.4662 49.6862 41.6677 49.6862 41.9999V45.9805H52.1149V41.8039C52.1149 40.7175 51.3879 39.8816 50.1926 39.8816H39.9553V41.4635H49.1526L49.1499 41.4662Z" fill="#E9E9E9"/>
<path d="M49.1499 51.7254C49.4711 51.7254 49.6862 51.9296 49.6862 52.2618V55.9918H52.1149V52.0657C52.1149 50.9794 51.3879 50.1462 50.1926 50.1462H39.9553V51.7254H49.1526H49.1499Z" fill="#E9E9E9"/>
<path d="M100.19 51.2326C100.511 51.2326 100.726 51.4341 100.726 51.769V55.9919H103.149V51.573C103.149 50.4866 102.422 49.6508 101.23 49.6508H91.2972V51.2326H100.19Z" fill="#E9E9E9"/>
<path d="M60.5745 54.4154C60.2559 54.4154 60.0408 54.214 60.0408 53.8818V50.2797H57.6122V54.0778C57.6122 55.1614 58.3391 56 59.5317 56H69.219V54.4182H60.5717L60.5745 54.4154Z" fill="#E9E9E9"/>
<path d="M112.118 54.4154C111.797 54.4154 111.585 54.2139 111.585 53.8817V50.1652H109.156V54.075C109.156 55.1587 109.886 55.9972 111.078 55.9972H120.763V54.4154H112.116H112.118Z" fill="#E9E9E9"/>
<path d="M145.64 54.4154C145.319 54.4154 145.107 54.2139 145.107 53.8817V51.9759H142.681V54.0751C142.681 55.1587 143.408 55.9973 144.603 55.9973H154.288V54.4154H145.64Z" fill="#E9E9E9"/>
<path d="M133.589 41.3738C133.908 41.3738 134.123 41.5752 134.123 41.9074V47.7095H136.549V41.7141C136.549 40.6305 135.819 39.7919 134.627 39.7919H124.697V41.371H133.589V41.3738Z" fill="#E9E9E9"/>
<path d="M35.6434 22.7421C31.2517 21.7102 29.5472 16.5099 28.6134 11.9112C26.7238 2.57513 19.5087 0.0130768 14.5207 0.0130768C11.1881 0.0130768 8.96369 0.927901 7.26746 1.86178C7.26746 1.86178 10.2461 0.416035 13.9571 1.48878C17.8669 2.62414 20.3554 5.85598 21.047 11.1843C22.068 19.0501 25.5993 24.3975 31.0992 25.3722C31.6737 25.473 32.2672 25.5301 32.8744 25.5301C34.7013 25.5301 37.6636 24.4683 39.5504 22.1731C38.5185 22.7503 36.5201 22.9518 35.6406 22.7448L35.6434 22.7421Z" fill="#E9E9E9"/>
<path d="M35.6432 22.7394C31.2515 21.7075 29.5471 16.5071 28.6159 11.9085C26.7237 2.57513 19.5085 0.0130768 14.5206 0.0130768C11.4412 0.0130768 8.87097 0.87617 7.2782 1.85362C7.96976 1.5514 9.29299 1.07765 10.6816 1.07765C15.6968 1.07765 20.0395 3.39738 21.0496 11.1843C22.0706 19.0474 25.6019 24.3948 31.1018 25.3668C31.6762 25.4702 32.2698 25.5247 32.877 25.5247C34.7039 25.5247 37.6634 24.4656 39.553 22.1676C38.5211 22.7421 36.5226 22.9436 35.6432 22.7367V22.7394Z" fill="#E9E9E9"/>
<path d="M7.21241 12.8803C7.21241 7.37506 9.42868 3.3727 12.8429 2.32991C12.1977 1.9569 11.1685 1.78537 10.2537 1.78537C4.02958 1.78809 0 8.19731 0 13.9013C0 25.8812 9.87793 31.4573 18.5933 31.4573C19.7913 31.4573 21.4984 31.1523 22.484 30.7058C13.039 30.4989 7.21241 22.9842 7.21241 12.8831V12.8803ZM31.5152 29.3826C31.4444 29.418 31.3736 29.4534 31.3028 29.486C31.4335 29.4261 31.5587 29.369 31.6731 29.3118C31.6213 29.3363 31.5669 29.3581 31.5124 29.3826H31.5152Z" fill="#E9E9E9"/>
<path d="M56.1994 6.24807L46.8633 0.12746C46.4713 -0.142087 46.248 0.0294426 46.3433 0.514082C46.6537 1.99795 46.8878 3.83304 46.8878 6.12555C46.8878 24.9965 29.7022 32.3696 18.482 32.1708C17.5508 32.1518 16.6197 32.0674 15.7048 31.9149C17.3875 32.5792 21.1475 33.0639 24.3358 33.0639C42.9181 33.0639 54.898 20.8471 56.6133 6.99137C56.6242 6.66192 56.5016 6.44411 56.2022 6.24535L56.1994 6.24807Z" fill="#E9E9E9"/>
</svg>
