<svg width="48" height="48" viewBox="0 0 48 48" fill="none" xmlns="http://www.w3.org/2000/svg">
<path d="M17.0463 9.25952H10.9298C9.86577 9.25952 9 10.122 9 11.1893V40.5361C9 41.6002 9.86246 42.4659 10.9298 42.4659H36.3278C37.3918 42.4659 38.2576 41.6035 38.2576 40.5361V11.1893C38.2576 10.1253 37.3951 9.25952 36.3278 9.25952H30.3302" stroke="#436D61" stroke-linecap="round" stroke-linejoin="round"/>
<path d="M17.2579 11.7775V11.6387H12.4995V39.1449H34.755V11.6387H30.6872" stroke="#436D61" stroke-linecap="round" stroke-linejoin="round"/>
<path d="M25.6545 7.1512C25.6611 7.09172 25.6644 7.03224 25.6644 6.97276C25.6644 5.88229 24.7822 5 23.6917 5C22.6012 5 21.7189 5.88559 21.7189 6.97276C21.7189 7.03224 21.7222 7.09172 21.7288 7.1512H17.2612V12.7159H30.0032V7.1512H25.6578H25.6545Z" stroke="#436D61" stroke-linecap="round" stroke-linejoin="round"/>
<path d="M26.0405 20.6739C26.589 19.3426 25.9543 17.8187 24.623 17.2702C23.2916 16.7217 21.7677 17.3564 21.2192 18.6877C20.6707 20.0191 21.3054 21.543 22.6367 22.0915C23.9681 22.64 25.492 22.0053 26.0405 20.6739Z" stroke="#436D61" stroke-linecap="round" stroke-linejoin="round"/>
<path d="M28.0105 28.4747C28.0105 26.0559 26.0476 24.093 23.6288 24.093C21.2099 24.093 19.2471 26.0559 19.2471 28.4747" stroke="#436D61" stroke-linecap="round" stroke-linejoin="round"/>
<path d="M18.2556 31.7661H29.0017" stroke="#436D61" stroke-linecap="round" stroke-linejoin="round"/>
<path d="M18.2556 35.1631H29.0017" stroke="#436D61" stroke-linecap="round" stroke-linejoin="round"/>
</svg>
