<svg width="48" height="48" viewBox="0 0 48 48" fill="none" xmlns="http://www.w3.org/2000/svg">
<path d="M44.705 23.2401C44.705 31.9208 37.456 37.7914 28.5126 37.7914C19.5693 37.7914 12.3203 31.9208 12.3203 23.2401C12.3203 14.5593 19.5693 7.51953 28.5126 7.51953C37.456 7.51953 44.705 14.5593 44.705 23.2401V23.2401Z" stroke="#436D61" stroke-width="2" stroke-linecap="round" stroke-linejoin="round"/>
<path d="M21.3331 11.1916C23.1258 11.1916 23.1258 12.849 24.9227 12.849C26.7196 12.849 26.7155 11.1916 28.5123 11.1916C30.3092 11.1916 30.3092 12.849 32.102 12.849C33.8947 12.849 33.8947 11.1916 35.6916 11.1916C37.4885 11.1916 37.4885 12.849 39.2812 12.849C40.4094 12.849 40.832 12.1926 41.4309 11.7085L38.3787 7.61835V4H18.646V7.61835L15.5938 11.7085C16.1968 12.1967 16.6153 12.849 17.7434 12.849C19.5362 12.849 19.5362 11.1916 21.3331 11.1916Z" fill="#CBBAA1" stroke="#6F9084" stroke-width="2" stroke-linecap="round" stroke-linejoin="round"/>
<path d="M17.0664 7.6875H39.9621" stroke="#436D61" stroke-width="2" stroke-linecap="round" stroke-linejoin="round"/>
<path d="M13.0582 17.3253L8.78755 11.5039L4 13.5756C4 13.5756 5.80918 15.9058 6.33019 19.0073C6.8512 22.1087 5.16509 27.0275 8.66037 31.1669C12.1516 35.3063 17.0704 33.8827 17.0704 33.8827" stroke="#436D61" stroke-width="2" stroke-linecap="round" stroke-linejoin="round"/>
<path d="M22.0206 41.9795C21.4632 42.4412 21.4632 43.1918 22.0206 43.6535C22.578 44.1151 23.4842 44.1151 24.0416 43.6535C24.599 43.1918 24.599 42.4412 24.0416 41.9795L23.0311 41.1426L22.0206 41.9795V41.9795Z" stroke="#6F9084" stroke-width="2" stroke-linecap="round" stroke-linejoin="round"/>
<path d="M28.6866 41.9795C28.1292 42.4412 28.1292 43.1918 28.6866 43.6535C29.244 44.1151 30.1503 44.1151 30.7077 43.6535C31.265 43.1918 31.265 42.4412 30.7077 41.9795L29.6971 41.1426L28.6866 41.9795Z" stroke="#6F9084" stroke-width="2" stroke-linecap="round" stroke-linejoin="round"/>
<path d="M36.3057 41.9795C35.7483 42.4412 35.7483 43.1918 36.3057 43.6535C36.8631 44.1151 37.7694 44.1151 38.3268 43.6535C38.8842 43.1918 38.8842 42.4412 38.3268 41.9795L37.3163 41.1426L36.3057 41.9795V41.9795Z" stroke="#6F9084" stroke-width="2" stroke-linecap="round" stroke-linejoin="round"/>
</svg>
