<svg width="48" height="48" viewBox="0 0 48 48" fill="none" xmlns="http://www.w3.org/2000/svg">
<path d="M43.4078 5.91081L16.1318 19.6939C15.1137 20.2091 13.8708 19.8002 13.3556 18.7821C12.8404 17.764 13.2493 16.5211 14.2674 16.0059L41.5433 2.22278C42.5614 1.7076 43.8044 2.11647 44.3195 3.13456C44.8347 4.15266 44.4258 5.39563 43.4078 5.91081V5.91081Z" stroke="#436D61" stroke-width="2" stroke-linecap="round" stroke-linejoin="round"/>
<path d="M43.4642 5.91081L16.1924 19.6939C15.1743 20.2091 13.9313 19.8002 13.4161 18.7821C12.901 17.764 13.3098 16.5211 14.3279 16.0059L41.6038 2.22278C42.6219 1.7076 43.8649 2.11647 44.3801 3.13456C44.8953 4.15266 44.4864 5.39563 43.4683 5.91081H43.4642Z" stroke="#436D61" stroke-width="2" stroke-linecap="round" stroke-linejoin="round"/>
<path d="M44.3767 3.13456C43.8616 2.11647 42.6186 1.7076 41.6005 2.22278L28.9336 8.62164C29.3629 9.51298 29.7963 10.9481 29.5878 12.9189L43.4649 5.90672C44.483 5.39154 44.8919 4.14857 44.3767 3.13047V3.13456Z" stroke="#436D61" stroke-width="2" stroke-linecap="round" stroke-linejoin="round"/>
<path d="M23.7727 11.2057L5.99902 2.22278C4.98093 1.7076 3.73796 2.11647 3.22278 3.13456C2.7076 4.15266 3.11647 5.39563 4.13456 5.91081L19.1934 13.5199L23.7727 11.2057V11.2057Z" stroke="#436D61" stroke-width="2" stroke-linecap="round" stroke-linejoin="round"/>
<path d="M37.6291 18.0409C37.1998 11.1433 33.892 6.03234 29.8687 5.74613C26.3851 5.49672 24.2753 9.28697 23.7724 10.3051C23.2695 9.28697 21.1597 5.49672 17.6761 5.74613C13.6528 6.03234 10.345 11.1433 9.91567 18.0409C9.5027 24.6361 13.8245 28.5081 23.1182 28.8679V28.8965C23.3431 28.8965 23.5598 28.8924 23.7765 28.8883C23.9932 28.8924 24.2099 28.8965 24.4347 28.8965V28.8679C33.7284 28.5081 38.0502 24.6361 37.6373 18.0409H37.6291ZM34.1864 18.781C33.6712 19.7991 32.4282 20.208 31.4101 19.6928L23.801 15.8453L16.1919 19.6928C15.1738 20.208 13.9308 19.7991 13.4156 18.781C12.9004 17.7629 13.3093 16.5199 14.3274 16.0048L28.9364 8.62051C29.3658 9.51185 29.7992 10.947 29.5906 12.9178L28.3804 13.5311L33.2746 16.0048C34.2927 16.5199 34.7015 17.7629 34.1864 18.781Z" fill="#CBBAA1" stroke="#6F9084" stroke-width="2" stroke-linecap="round" stroke-linejoin="round"/>
<path d="M33.2747 16.0057L28.3518 13.5156L23.7725 15.8298L31.4143 19.6896C32.4324 20.2048 33.6754 19.7959 34.1905 18.7778C34.7057 17.7597 34.2969 16.5168 33.2788 16.0016L33.2747 16.0057Z" stroke="#436D61" stroke-width="2" stroke-linecap="round" stroke-linejoin="round"/>
<path d="M28.937 8.625L14.3279 16.0092C13.3098 16.5244 12.901 17.7674 13.4161 18.7855C13.9313 19.8036 15.1743 20.2125 16.1924 19.6973L29.5912 12.9263C29.8038 10.9556 29.3704 9.52043 28.937 8.62909V8.625Z" stroke="#436D61" stroke-width="2" stroke-linecap="round" stroke-linejoin="round"/>
<path d="M41.1951 31.5762H6.4082C6.4082 36.0574 10.0676 39.954 15.4688 41.9615V44.885H32.1386V41.9615C37.5357 39.954 41.1992 36.0574 41.1992 31.5762H41.1951Z" stroke="#436D61" stroke-width="2" stroke-linecap="round" stroke-linejoin="round"/>
<path d="M14.9736 9.84961C14.9736 9.84961 14.9736 12.259 14.9736 14.8546" stroke="#436D61" stroke-width="2" stroke-linecap="round" stroke-linejoin="round"/>
<path d="M17.1973 19.8594C17.1973 19.8594 18.4629 21.5099 21.09 22.6399" stroke="#436D61" stroke-width="2" stroke-linecap="round" stroke-linejoin="round"/>
<path d="M13.8613 19.3027C13.8613 19.3027 13.9524 21.682 14.9735 23.7516" stroke="#436D61" stroke-width="2" stroke-linecap="round" stroke-linejoin="round"/>
</svg>
