<svg width="48" height="48" viewBox="0 0 48 48" fill="none" xmlns="http://www.w3.org/2000/svg">
<path d="M31.7292 6.65625H9.56197C7.40727 6.65625 5.65723 8.40629 5.65723 10.561V16.9042C5.65723 19.0589 7.40727 20.809 9.56197 20.809H10.2662L9.06271 23.7573L14.5703 20.809H31.7239C33.8786 20.809 35.6286 19.0589 35.6286 16.9042V10.561C35.6286 8.40104 33.8786 6.65625 31.7239 6.65625H31.7292Z" fill="#CBBAA1"/>
<path d="M7.76433 25.1979L9.29364 21.4613C6.90245 21.3194 5 19.3329 5 16.9049V10.5617C5 8.0496 7.0496 6 9.56167 6H31.7236C34.2409 6 36.2853 8.0496 36.2853 10.5617V16.9049C36.2853 19.4222 34.2409 21.4666 31.7236 21.4666H14.733L7.76433 25.1979ZM9.56167 7.31384C7.76958 7.31384 6.31384 8.76958 6.31384 10.5617V16.9049C6.31384 18.697 7.76958 20.1527 9.56167 20.1527H11.2486L10.3657 22.3179L14.4071 20.1527H31.7289C33.5209 20.1527 34.9767 18.697 34.9767 16.9049V10.5617C34.9767 8.76958 33.5209 7.31384 31.7289 7.31384H9.56167Z" fill="#436D61"/>
<path d="M29.1689 10.0898H12.1152V11.4037H29.1689V10.0898Z" fill="#436D61"/>
<path d="M29.1689 13.0898H12.1152V14.4037H29.1689V13.0898Z" fill="#436D61"/>
<path d="M29.1689 16.0918H12.1152V17.4056H29.1689V16.0918Z" fill="#436D61"/>
<path d="M17.2768 24.4258H39.4387C41.5987 24.4258 43.3435 26.1758 43.3435 28.3305V34.6738C43.3435 36.8285 41.5935 38.5785 39.4387 38.5785H38.7345L39.938 41.5268L34.4304 38.5785H17.2768C15.1221 38.5785 13.3721 36.8285 13.3721 34.6738V28.3305C13.3721 26.1758 15.1221 24.4258 17.2768 24.4258Z" fill="#6F9084"/>
<path d="M41.241 42.9713L34.2724 39.24H17.2765C14.7592 39.24 12.7148 37.1904 12.7148 34.6783V28.3351C12.7148 25.8178 14.7592 23.7734 17.2765 23.7734H39.4384C41.9558 23.7734 44.0001 25.823 44.0001 28.3351V34.6783C44.0001 37.1063 42.0977 39.0929 39.7065 39.2348L41.2358 42.9713H41.241ZM17.2765 25.082C15.4844 25.082 14.0287 26.5378 14.0287 28.3299V34.6731C14.0287 36.4652 15.4844 37.9209 17.2765 37.9209H34.5982L38.6396 40.0861L37.7567 37.9209H39.4437C41.2358 37.9209 42.6915 36.4652 42.6915 34.6731V28.3299C42.6915 26.5378 41.2358 25.082 39.4437 25.082H17.2765Z" fill="#436D61"/>
<path d="M36.8848 27.8633H19.8311V29.1771H36.8848V27.8633Z" fill="#436D61"/>
<path d="M36.8848 30.8633H19.8311V32.1771H36.8848V30.8633Z" fill="#436D61"/>
<path d="M36.8848 33.8652H19.8311V35.1791H36.8848V33.8652Z" fill="#436D61"/>
</svg>
