<svg width="64" height="64" viewBox="0 0 64 64" fill="none" xmlns="http://www.w3.org/2000/svg">
<path d="M31.969 33.2551C31.9256 33.2551 31.8758 33.2551 31.8323 33.2489C23.9597 32.4659 18.0195 26.563 18.0195 19.523V10.7184C18.0195 9.94789 18.6471 9.32031 19.4176 9.32031C20.1881 9.32031 20.8156 9.94789 20.8156 10.7184V19.523C20.8156 25.078 25.6001 29.7568 31.969 30.4527C38.338 29.7568 43.1224 25.0842 43.1224 19.523V10.7184C43.1224 9.94789 43.75 9.32031 44.5205 9.32031C45.291 9.32031 45.9186 9.94789 45.9186 10.7184V19.523C45.9186 26.563 39.9784 32.4659 32.1057 33.2489C32.0623 33.2489 32.0125 33.2551 31.969 33.2551Z" fill="#6F9084"/>
<path d="M39.7236 14.8442H19.4176C18.6471 14.8442 18.0195 14.2166 18.0195 13.4462C18.0195 12.6757 18.6471 12.0481 19.4176 12.0481H39.7236C40.4941 12.0481 41.1217 12.6757 41.1217 13.4462C41.1217 14.2166 40.4941 14.8442 39.7236 14.8442Z" fill="#6F9084"/>
<path d="M39.7236 20.8774H19.4176C18.6471 20.8774 18.0195 20.2498 18.0195 19.4794C18.0195 18.7089 18.6471 18.0813 19.4176 18.0813H39.7236C40.4941 18.0813 41.1217 18.7089 41.1217 19.4794C41.1217 20.2498 40.4941 20.8774 39.7236 20.8774Z" fill="#6F9084"/>
<path d="M37.4992 26.9109H21.1947C20.4242 26.9109 19.7966 26.2833 19.7966 25.5128C19.7966 24.7423 20.4242 24.1147 21.1947 24.1147H37.5054C38.2759 24.1147 38.9034 24.7423 38.9034 25.5128C38.9034 26.2833 38.2759 26.9109 37.5054 26.9109H37.4992Z" fill="#6F9084"/>
<path d="M44.5205 54.3873C43.75 54.3873 43.1224 53.7597 43.1224 52.9892V44.1846C43.1224 38.6296 38.338 33.9508 31.969 33.2549C25.6001 33.9508 20.8156 38.6234 20.8156 44.1846V52.9892C20.8156 53.7597 20.1881 54.3873 19.4176 54.3873C18.6471 54.3873 18.0195 53.7597 18.0195 52.9892V44.1846C18.0195 37.1446 23.9597 31.2417 31.8323 30.4588C31.9256 30.4525 32.0188 30.4525 32.112 30.4588C39.9846 31.2417 45.9248 37.1446 45.9248 44.1846V52.9892C45.9248 53.7597 45.2972 54.3873 44.5267 54.3873H44.5205Z" fill="#6F9084"/>
<path d="M44.5205 51.6594H24.2145C23.444 51.6594 22.8164 51.0318 22.8164 50.2613C22.8164 49.4909 23.444 48.8633 24.2145 48.8633H44.5205C45.291 48.8633 45.9185 49.4909 45.9185 50.2613C45.9185 51.0318 45.291 51.6594 44.5205 51.6594Z" fill="#6F9084"/>
<path d="M44.5205 45.6262H24.2145C23.444 45.6262 22.8164 44.9986 22.8164 44.2281C22.8164 43.4577 23.444 42.8301 24.2145 42.8301H44.5205C45.291 42.8301 45.9185 43.4577 45.9185 44.2281C45.9185 44.9986 45.291 45.6262 44.5205 45.6262Z" fill="#6F9084"/>
<path d="M42.7498 39.5927H26.4391C25.6686 39.5927 25.041 38.9652 25.041 38.1947C25.041 37.4242 25.6686 36.7966 26.4391 36.7966H42.7498C43.5202 36.7966 44.1478 37.4242 44.1478 38.1947C44.1478 38.9652 43.5202 39.5927 42.7498 39.5927Z" fill="#6F9084"/>
</svg>
