<svg width="48" height="48" viewBox="0 0 48 48" fill="none" xmlns="http://www.w3.org/2000/svg">
<path d="M21.1011 14.3906H10.2383V20.1014H21.1011V14.3906Z" fill="white"/>
<path d="M21.9189 13.5027C22.8911 13.121 23.986 13.5981 24.3676 14.5658L26.4711 19.8949H30.1648C31.2052 19.8949 32.0547 20.74 32.0547 21.7849C32.0547 22.8298 31.2097 23.6749 30.1648 23.6749H25.1854C24.4085 23.6749 23.7134 23.2024 23.4272 22.48L21.3691 17.8914" fill="white"/>
<path d="M30.1698 24.3581H25.1904C24.1273 24.3581 23.1914 23.7175 22.8007 22.7316L20.7563 18.1748C20.6018 17.8295 20.7563 17.4297 21.097 17.2752C21.4423 17.1207 21.8421 17.2752 21.9966 17.616L24.0546 22.2046C24.25 22.6952 24.6907 22.9996 25.1904 22.9996H30.1698C30.8376 22.9996 31.3783 22.459 31.3783 21.7912C31.3783 21.1233 30.8376 20.5827 30.1698 20.5827H26.4762C26.1945 20.5827 25.9446 20.41 25.8401 20.1511L23.7366 14.8219C23.6185 14.522 23.3913 14.2858 23.096 14.1586C22.8007 14.0314 22.4736 14.0223 22.1738 14.145C21.8239 14.2813 21.4287 14.1132 21.2878 13.7633C21.1515 13.4135 21.3196 13.0182 21.6695 12.8774C22.3101 12.623 23.0052 12.6366 23.6367 12.9092C24.2682 13.1818 24.7543 13.6861 25.0042 14.3221L26.9396 19.2197H30.1698C31.5873 19.2197 32.7412 20.3737 32.7412 21.7912C32.7412 23.2086 31.5873 24.3626 30.1698 24.3626V24.3581Z" fill="#436D61"/>
<path d="M12.3435 27.6327C12.3435 28.6458 11.5257 29.4636 10.5125 29.4636C9.49942 29.4636 8.68164 28.6413 8.68164 27.6327V16.411C8.68164 15.3979 9.49942 14.5801 10.5125 14.5801C11.5257 14.5801 12.3435 15.3979 12.3435 16.411V27.6327Z" fill="white"/>
<path d="M10.5124 30.1449C9.12671 30.1449 8 29.0182 8 27.6325V16.4108C8 15.0251 9.12671 13.8984 10.5124 13.8984C11.8981 13.8984 13.0248 15.0251 13.0248 16.4108V27.6325C13.0248 29.0182 11.8981 30.1449 10.5124 30.1449ZM10.5124 15.2614C9.87634 15.2614 9.36296 15.7748 9.36296 16.4108V27.6325C9.36296 28.2686 9.88088 28.7819 10.5124 28.7819C11.1439 28.7819 11.6618 28.264 11.6618 27.6325V16.4108C11.6618 15.7793 11.1439 15.2614 10.5124 15.2614Z" fill="#436D61"/>
<path d="M8.68164 19.1536V16.455C8.68164 14.4696 10.2899 12.8613 12.2753 12.8613H21.2708C22.7564 12.8613 24.0331 13.7654 24.5783 15.0511" fill="white"/>
<path d="M8.68148 19.835C8.30439 19.835 8 19.5306 8 19.1535V16.4548C8 14.0969 9.91723 12.1797 12.2751 12.1797H21.2707C22.9925 12.1797 24.5372 13.2019 25.2051 14.7875C25.3505 15.1328 25.1914 15.5326 24.8416 15.6825C24.4963 15.8324 24.0965 15.6689 23.9466 15.319C23.4877 14.2378 22.4383 13.5426 21.2661 13.5426H12.2751C10.6714 13.5426 9.36296 14.8511 9.36296 16.4548V19.1535C9.36296 19.5306 9.05856 19.835 8.68148 19.835Z" fill="#436D61"/>
<path d="M21.3786 17.9004V41.0298C21.3786 42.2928 20.3519 43.3196 19.0889 43.3196C17.8259 43.3196 16.7991 42.2928 16.7991 41.0298V29.3265H16.7446V41.0298C16.7446 42.2928 15.7178 43.3196 14.4548 43.3196C13.1918 43.3196 12.165 42.2928 12.165 41.0298V18.014" fill="white"/>
<path d="M19.0887 44.0009C18.1528 44.0009 17.3169 43.5647 16.7717 42.8878C16.2265 43.5693 15.3905 44.0009 14.4546 44.0009C12.8146 44.0009 11.4834 42.6697 11.4834 41.0296V18.0138C11.4834 17.6367 11.7878 17.3323 12.1649 17.3323C12.542 17.3323 12.8464 17.6367 12.8464 18.0138V41.0296C12.8464 41.9155 13.5687 42.6379 14.4546 42.6379C15.3406 42.6379 16.0629 41.9155 16.0629 41.0296V29.3264C16.0629 28.9493 16.3673 28.6449 16.7444 28.6449H16.7989C17.176 28.6449 17.4804 28.9493 17.4804 29.3264V41.0296C17.4804 41.9155 18.2028 42.6379 19.0887 42.6379C19.9746 42.6379 20.697 41.9155 20.697 41.0296V17.9002C20.697 17.5231 21.0014 17.2188 21.3785 17.2188C21.7556 17.2188 22.06 17.5231 22.06 17.9002V41.0296C22.06 42.6697 20.7288 44.0009 19.0887 44.0009Z" fill="#436D61"/>
<path d="M19.9471 8.16593C19.9471 6.41225 18.5251 4.99023 16.7714 4.99023C15.0177 4.99023 13.5957 6.41225 13.5957 8.16593C13.5957 9.9196 15.0177 11.3416 16.7714 11.3416C18.5251 11.3416 19.9471 9.9196 19.9471 8.16593Z" fill="white"/>
<path d="M16.7673 12.0229C14.6411 12.0229 12.9102 10.292 12.9102 8.16576C12.9102 6.03955 14.6411 4.30859 16.7673 4.30859C18.8935 4.30859 20.6245 6.03955 20.6245 8.16576C20.6245 10.292 18.8935 12.0229 16.7673 12.0229ZM16.7673 5.67155C15.3907 5.67155 14.2731 6.78918 14.2731 8.16576C14.2731 9.54235 15.3907 10.66 16.7673 10.66C18.1439 10.66 19.2615 9.54235 19.2615 8.16576C19.2615 6.78918 18.1439 5.67155 16.7673 5.67155Z" fill="#436D61"/>
<path d="M39.8988 11.1284C39.8988 7.57111 37.0139 4.68164 33.4566 4.68164C29.8992 4.68164 27.0098 7.56657 27.0098 11.1284C27.0098 13.4273 28.2183 15.4399 30.031 16.5803V20.1921C30.031 22.0821 31.562 23.6177 33.4566 23.6177C35.3511 23.6177 36.8821 22.0866 36.8821 20.1921V16.5803C38.6949 15.4399 39.9033 13.4273 39.9033 11.1284H39.8988Z" fill="white"/>
<path d="M33.4525 24.2944C31.19 24.2944 29.3454 22.4544 29.3454 20.1874V16.9436C27.4464 15.6033 26.3242 13.4589 26.3242 11.1283C26.3242 7.19841 29.5226 4 33.4525 4C37.3823 4 40.5762 7.19841 40.5762 11.1283C40.5762 13.4589 39.454 15.6079 37.555 16.9436V20.1874C37.555 22.4499 35.715 24.2944 33.4479 24.2944H33.4525ZM33.4525 5.36296C30.2723 5.36296 27.6872 7.94803 27.6872 11.1283C27.6872 13.1182 28.6958 14.94 30.3904 16.0031C30.5903 16.1258 30.7084 16.3439 30.7084 16.5801V20.1919C30.7084 21.7048 31.9396 22.936 33.4525 22.936C34.9654 22.936 36.1966 21.7048 36.1966 20.1919V16.5801C36.1966 16.3439 36.3147 16.1258 36.5146 16.0031C38.2047 14.94 39.2178 13.1182 39.2178 11.1283C39.2178 7.94803 36.6327 5.36296 33.457 5.36296H33.4525Z" fill="#6F9084"/>
<path d="M38.2851 17.4705C38.2851 17.9703 37.8808 18.3791 37.3765 18.3791H29.5213C29.0215 18.3791 28.6172 17.9748 28.6172 17.4705C28.6172 16.9708 29.0215 16.5664 29.5213 16.5664H37.3765C37.8762 16.5664 38.2851 16.9708 38.2851 17.4705Z" fill="#CBBAA1"/>
<path d="M37.3822 19.0566H29.527C28.6501 19.0566 27.9414 18.3433 27.9414 17.4664C27.9414 16.5896 28.6547 15.8809 29.527 15.8809H37.3822C38.259 15.8809 38.9723 16.5941 38.9723 17.4664C38.9723 18.3387 38.259 19.0566 37.3822 19.0566ZM29.527 17.2438C29.4043 17.2438 29.3044 17.3438 29.3044 17.4664C29.3044 17.5891 29.4043 17.6936 29.527 17.6936H37.3822C37.5048 17.6936 37.6093 17.5936 37.6093 17.4664C37.6093 17.3392 37.5094 17.2438 37.3822 17.2438H29.527Z" fill="#6F9084"/>
<path d="M38.2851 19.283C38.2851 19.7828 37.8808 20.1871 37.3765 20.1871H29.5213C29.0215 20.1871 28.6172 19.7828 28.6172 19.283C28.6172 18.7833 29.0215 18.3789 29.5213 18.3789H37.3765C37.8762 18.3789 38.2851 18.7833 38.2851 19.283Z" fill="#CBBAA1"/>
<path d="M37.3822 20.8684H29.527C28.6501 20.8684 27.9414 20.1551 27.9414 19.2828C27.9414 18.4105 28.6547 17.6973 29.527 17.6973H37.3822C38.259 17.6973 38.9723 18.4105 38.9723 19.2828C38.9723 20.1551 38.259 20.8684 37.3822 20.8684ZM29.527 19.0557C29.4043 19.0557 29.3044 19.1556 29.3044 19.2783C29.3044 19.401 29.4043 19.5009 29.527 19.5009H37.3822C37.5048 19.5009 37.6093 19.401 37.6093 19.2783C37.6093 19.1556 37.5094 19.0557 37.3822 19.0557H29.527Z" fill="#6F9084"/>
</svg>
