<svg width="48" height="48" viewBox="0 0 48 48" fill="none" xmlns="http://www.w3.org/2000/svg">
<path d="M43.3255 22.0311C43.3255 12.4434 35.5486 4.67188 25.9609 4.67188V22.0311H43.3201H43.3255Z" fill="#CBBAA1"/>
<path d="M43.3258 22.7065H25.9666C25.5948 22.7065 25.293 22.4047 25.293 22.0329V4.67367C25.293 4.30181 25.5948 4 25.9666 4C35.91 4 43.9995 12.0895 43.9995 22.0329C43.9995 22.4047 43.6977 22.7065 43.3258 22.7065ZM26.6403 21.3592H42.6414C42.2965 12.6931 35.3064 5.70304 26.6403 5.35812V21.3592Z" fill="#436D61"/>
<path d="M22.032 25.9627V8.60352C12.4443 8.60352 4.67285 16.375 4.67285 25.9627C4.67285 35.5504 12.4443 43.3219 22.032 43.3219C31.6198 43.3219 39.3912 35.5504 39.3912 25.9627H22.032Z" fill="#6F9084"/>
<path d="M22.0329 44.0008C12.0895 44.0008 4 35.906 4 25.9626C4 16.0191 12.0895 7.92969 22.0329 7.92969C22.4047 7.92969 22.7065 8.23149 22.7065 8.60336V25.2889H39.3921C39.7639 25.2889 40.0657 25.5907 40.0657 25.9626C40.0657 35.906 31.9763 43.9954 22.0329 43.9954V44.0008ZM21.3592 9.2932C12.4721 9.64351 5.34735 16.9892 5.34735 25.9626C5.34735 34.9359 12.8332 42.6481 22.0329 42.6481C31.2325 42.6481 38.3519 35.5233 38.7076 26.6362H22.0329C21.661 26.6362 21.3592 26.3344 21.3592 25.9626V9.28781V9.2932Z" fill="#436D61"/>
</svg>
