<svg width="48" height="48" viewBox="0 0 48 48" fill="none" xmlns="http://www.w3.org/2000/svg">
<path d="M33.3572 9.5H9V38.5H33.3572V9.5Z" stroke="white" stroke-linecap="round" stroke-linejoin="round"/>
<path d="M19.4655 16.4467C20.4403 15.4719 20.4403 13.8914 19.4655 12.9165C18.4906 11.9417 16.9101 11.9417 15.9353 12.9165C14.9604 13.8914 14.9604 15.4719 15.9353 16.4467C16.9101 17.4216 18.4906 17.4216 19.4655 16.4467Z" stroke="white" stroke-linecap="round" stroke-linejoin="round"/>
<path d="M17.7019 27.7915V34.2647C17.7019 35.119 17.0087 35.8123 16.1543 35.8123C15.2999 35.8123 14.6067 35.119 14.6067 34.2647V20.917" stroke="white" stroke-linecap="round" stroke-linejoin="round"/>
<path d="M20.7942 20.917V34.2647C20.7942 35.119 20.1009 35.8123 19.2466 35.8123C18.3922 35.8123 17.699 35.119 17.699 34.2647V27.7915" stroke="white" stroke-linecap="round" stroke-linejoin="round"/>
<path d="M14.6037 20.9171V25.9582C14.6037 26.6545 14.0381 27.22 13.3419 27.22C12.6456 27.22 12.0801 26.6545 12.0801 25.9582V19.935C12.0801 18.43 13.2993 17.2077 14.8043 17.2047C16.5617 17.2016 18.836 17.1986 20.5934 17.2047C22.0984 17.2077 23.3177 18.43 23.3177 19.935V25.9795C23.3177 26.6757 22.7521 27.2413 22.0559 27.2413C21.3596 27.2413 20.7941 26.6757 20.7941 25.9795V20.9384" stroke="white" stroke-linecap="round" stroke-linejoin="round"/>
<path d="M25.9355 13.9666H30.5662" stroke="white" stroke-linecap="round" stroke-linejoin="round"/>
<path d="M25.9355 17.311H30.5662" stroke="white" stroke-linecap="round" stroke-linejoin="round"/>
<path d="M25.9355 20.6555H30.5662" stroke="white" stroke-linecap="round" stroke-linejoin="round"/>
<path d="M25.9355 24H30.5662" stroke="white" stroke-linecap="round" stroke-linejoin="round"/>
<path d="M25.9355 27.3447H30.5662" stroke="white" stroke-linecap="round" stroke-linejoin="round"/>
<path d="M25.9355 30.6892H30.5662" stroke="white" stroke-linecap="round" stroke-linejoin="round"/>
<path d="M25.9355 34.0337H30.5662" stroke="white" stroke-linecap="round" stroke-linejoin="round"/>
<path d="M35.4551 34.6689L37.255 38.4999L39.052 34.6689" stroke="white" stroke-linecap="round" stroke-linejoin="round"/>
<path d="M38.7965 12.2151H35.7104V14.4194H38.7965V12.2151Z" fill="white"/>
<path d="M36.428 9.5H38.082C38.681 9.5 39.1644 9.98648 39.1644 10.5824V34.4866H35.3425V10.5824C35.3425 9.98343 35.829 9.5 36.4249 9.5H36.428Z" stroke="white" stroke-linecap="round" stroke-linejoin="round"/>
</svg>
