<svg width="48" height="46" viewBox="0 0 48 46" fill="none" xmlns="http://www.w3.org/2000/svg">
<path d="M23.8579 45C29.1662 45 33.4694 35.1503 33.4694 23C33.4694 10.8497 29.1662 1 23.8579 1C18.5496 1 14.2463 10.8497 14.2463 23C14.2463 35.1503 18.5496 45 23.8579 45Z" stroke="white" stroke-linecap="round" stroke-linejoin="round"/>
<path d="M28.6641 31.3252C39.1865 25.25 45.565 16.5985 42.9109 12.0013C40.2567 7.4042 29.575 8.60236 19.0526 14.6775C8.53012 20.7526 2.15161 29.4042 4.80577 34.0013C7.45992 38.5985 18.1417 37.4003 28.6641 31.3252Z" stroke="white" stroke-linecap="round" stroke-linejoin="round"/>
<path d="M42.9119 33.9997C45.566 29.4025 39.1875 20.7509 28.6651 14.6758C18.1426 8.60068 7.4609 7.40252 4.80675 11.9997C2.15259 16.5968 8.5311 25.2484 19.0535 31.3235C29.576 37.3986 40.2577 38.5968 42.9119 33.9997Z" stroke="white" stroke-linecap="round" stroke-linejoin="round"/>
<path d="M28.557 23.0864C28.6036 20.4911 26.5375 18.3493 23.9422 18.3027C21.3469 18.256 19.2051 20.3221 19.1585 22.9174C19.1118 25.5128 21.1779 27.6545 23.7732 27.7012C26.3686 27.7478 28.5103 25.6817 28.557 23.0864Z" fill="#CBBAA1" stroke="white" stroke-linecap="round" stroke-linejoin="round"/>
</svg>
