<svg width="64" height="64" viewBox="0 0 64 64" fill="none" xmlns="http://www.w3.org/2000/svg">
<path d="M33.2178 35.1502C29.6761 35.1502 26.793 32.2671 26.793 28.7254C26.793 25.1836 29.6761 22.3005 33.2178 22.3005C36.7596 22.3005 39.6427 25.1836 39.6427 28.7254C39.6427 32.2671 36.7596 35.1502 33.2178 35.1502ZM33.2178 25.0967C31.217 25.0967 29.5891 26.7246 29.5891 28.7254C29.5891 30.7262 31.217 32.3541 33.2178 32.3541C35.2186 32.3541 36.8466 30.7262 36.8466 28.7254C36.8466 26.7246 35.2186 25.0967 33.2178 25.0967Z" fill="#6F9084"/>
<path d="M41.482 42.1281C40.7115 42.1281 40.0839 41.5005 40.0839 40.7301V38.5304C40.0839 36.48 38.9841 34.56 37.207 33.5161C36.5422 33.1246 36.3185 32.2671 36.7099 31.6023C37.1014 30.9374 37.9589 30.7137 38.6237 31.1052C41.2459 32.6462 42.88 35.492 42.88 38.5304V40.7301C42.88 41.5005 42.2525 42.1281 41.482 42.1281Z" fill="#6F9084"/>
<path d="M24.9601 42.1281C24.1896 42.1281 23.562 41.5005 23.562 40.7301V38.5304C23.562 35.492 25.19 32.6462 27.8183 31.1052C28.4832 30.7137 29.3407 30.9374 29.7321 31.6023C30.1236 32.2671 29.8999 33.1246 29.235 33.5161C27.4641 34.5537 26.3581 36.48 26.3581 38.5304V40.7301C26.3581 41.5005 25.7306 42.1281 24.9601 42.1281Z" fill="#6F9084"/>
<path d="M45.4959 53.8717H16.64C15.8695 53.8717 15.2419 53.2442 15.2419 52.4737V49.0748C15.2419 48.3043 15.8695 47.6768 16.64 47.6768C17.4105 47.6768 18.0381 48.3043 18.0381 49.0748V51.0756H45.5021C47.1052 51.0756 48.4101 49.7708 48.4101 48.1676V16.2671C48.4101 14.664 47.1052 13.3591 45.5021 13.3591H18.0381V18.9327C18.0381 19.7032 17.4105 20.3308 16.64 20.3308C15.8695 20.3308 15.2419 19.7032 15.2419 18.9327V11.961C15.2419 11.1906 15.8695 10.563 16.64 10.563H45.5021C48.6462 10.563 51.2062 13.123 51.2062 16.2671V48.1676C51.2062 51.3117 48.6462 53.8717 45.5021 53.8717H45.4959Z" fill="#6F9084"/>
<path d="M18.9515 21.1882H13.8253C13.0548 21.1882 12.4272 20.5606 12.4272 19.7901C12.4272 19.0197 13.0548 18.3921 13.8253 18.3921H18.9515C19.722 18.3921 20.3496 19.0197 20.3496 19.7901C20.3496 20.5606 19.722 21.1882 18.9515 21.1882Z" fill="#6F9084"/>
<path d="M18.9515 29.4709H13.8253C13.0548 29.4709 12.4272 28.8433 12.4272 28.0729C12.4272 27.3024 13.0548 26.6748 13.8253 26.6748H18.9515C19.722 26.6748 20.3496 27.3024 20.3496 28.0729C20.3496 28.8433 19.722 29.4709 18.9515 29.4709Z" fill="#6F9084"/>
<path d="M18.9515 37.7536H13.8253C13.0548 37.7536 12.4272 37.1261 12.4272 36.3556C12.4272 35.5851 13.0548 34.9575 13.8253 34.9575H18.9515C19.722 34.9575 20.3496 35.5851 20.3496 36.3556C20.3496 37.1261 19.722 37.7536 18.9515 37.7536Z" fill="#6F9084"/>
<path d="M18.9515 46.0427H13.8253C13.0548 46.0427 12.4272 45.4151 12.4272 44.6446C12.4272 43.8742 13.0548 43.2466 13.8253 43.2466H18.9515C19.722 43.2466 20.3496 43.8742 20.3496 44.6446C20.3496 45.4151 19.722 46.0427 18.9515 46.0427Z" fill="#6F9084"/>
</svg>
