<svg width="1080" height="360" viewBox="0 0 1080 360" fill="none" xmlns="http://www.w3.org/2000/svg">
<rect width="1080" height="360" fill="#436D61"/>
<mask id="mask0_31_3" style="mask-type:alpha" maskUnits="userSpaceOnUse" x="0" y="0" width="1080" height="360">
<rect width="1080" height="360" fill="#436D61"/>
</mask>
<g mask="url(#mask0_31_3)">
<path d="M1075.05 73H937.948L841 169.948V307.052L937.948 404H1075.05L1172 307.052V169.948L1075.05 73ZM1160.58 232.793H1072.59V203.621H1106.37V178.021H1160.58V232.797V232.793ZM1095.06 299.08H1034.18V345.883H1012.2V285.459H1045.49V244.207H1061.27V284.894H1095.05V299.084L1095.06 299.08ZM918.145 299.08V284.89H951.923V244.203H967.501V285.455H1000.79V345.879H979.02V299.075H918.149L918.145 299.08ZM918.044 178.017H978.915V131.213H1000.79V191.537H967.501V232.789H951.822V192.202H918.044V178.012V178.017ZM1094.96 178.017V192.207H1061.18V232.793H1045.5V191.541H1012.21V131.218H1034.09V178.021H1094.96V178.017ZM978.915 244.203H1000.79V274.04H978.915V244.203V244.203ZM978.915 232.789V202.951H1000.79V232.789H978.915V232.789ZM1012.21 244.203H1034.09V274.04H1012.21V244.203ZM1012.21 232.789V202.951H1034.09V232.789H1012.21V232.789ZM1106.37 166.603V151.97H1137.88L1152.51 166.603H1106.37V166.603ZM1078.4 140.556V92.4832L1126.47 140.556H1078.4V140.556ZM1094.96 151.97V166.603H1045.5V84.4141H1066.99V151.97H1094.96V151.97ZM1034.09 119.799H1012.21V84.4141H1034.09V119.803V119.799ZM1000.8 119.799H978.919V84.4141H1000.8V119.803V119.799ZM967.505 166.603H918.048V151.97H946.021V84.4141H967.505V166.603V166.603ZM934.607 140.556H886.534L934.607 92.4832V140.556ZM906.634 151.97V166.603H860.483L875.115 151.97H906.626H906.634ZM906.634 178.017V203.616H940.413V232.789H852.414V178.012H906.63L906.634 178.017ZM940.513 244.203V273.476H906.735V299.075H852.414V244.203H940.509H940.513ZM906.735 310.489V325.121H875.22L860.588 310.489H906.735ZM934.708 336.536V384.609L886.634 336.536H934.708ZM918.145 325.121V310.489H967.601V392.577H946.117V325.121H918.145ZM979.016 357.293H1000.79V392.582H979.016V357.293ZM1012.2 357.293H1034.18V392.582H1012.2V357.293ZM1045.59 310.489H1095.05V325.121H1067.08V392.577H1045.59V310.489V310.489ZM1078.49 336.536H1126.36L1078.49 384.407V336.536ZM1106.47 325.121V310.489H1152.41L1137.78 325.121H1106.47ZM1106.47 299.075V273.476H1072.69V244.203H1160.58V299.075H1106.47Z" fill="#CBBAA1" fill-opacity="0.27"/>
<g opacity="0.6">
<path d="M152.29 51.28H138.81C134.27 51.28 130.57 48.52 130.57 45.14C130.57 41.76 134.27 39 138.81 39H175.63V41H138.81C135.43 41 132.57 42.9 132.57 45.14C132.57 47.38 135.43 49.28 138.81 49.28H152.29V51.28Z" fill="#CBBAA1"/>
<path d="M152.29 62.5H93.1399V60.5H152.29C155.73 60.5 158.53 58.43 158.53 55.89C158.53 53.35 155.73 51.28 152.29 51.28V49.28C156.83 49.28 160.53 52.25 160.53 55.89C160.53 59.53 156.83 62.5 152.29 62.5Z" fill="#CBBAA1"/>
<path d="M117.17 77.54H41.4299V79.54H117.17V77.54Z" fill="#CBBAA1"/>
<path d="M28.89 77.54H1V79.54H28.89V77.54Z" fill="#CBBAA1"/>
<g opacity="0.6">
<path d="M236.601 363.491H62.43C58.007 363.491 54.4203 359.89 54.4203 355.481C54.4203 351.072 58.0211 347.471 62.43 347.471H103.272C106.831 347.471 109.722 344.579 109.722 341.021C109.722 337.463 106.831 334.571 103.272 334.571H28.7468C23.9269 334.571 20 330.644 20 325.824C20 321.004 23.9269 317.077 28.7468 317.077H59.9916V319.912H28.7468C25.4863 319.912 22.8353 322.563 22.8353 325.824C22.8353 329.085 25.4863 331.736 28.7468 331.736H103.272C108.39 331.736 112.558 335.903 112.558 341.021C112.558 346.139 108.39 350.307 103.272 350.307H62.43C59.5805 350.307 57.2556 352.632 57.2556 355.481C57.2556 358.33 59.5805 360.655 62.43 360.655H236.587V363.491H236.601Z" fill="#CBBAA1"/>
<path d="M99.5013 319.898H73.1615C72.3818 319.898 71.7439 319.26 71.7439 318.481C71.7439 317.701 72.3818 317.063 73.1615 317.063H99.5013C100.281 317.063 100.919 317.701 100.919 318.481C100.919 319.26 100.281 319.898 99.5013 319.898Z" fill="#CBBAA1"/>
<path d="M228.663 340.865H162.204V340.057C162.204 320.409 177.117 304.418 195.433 304.418C213.749 304.418 228.663 320.409 228.663 340.057V340.865Z" fill="#436D61"/>
<path d="M230.08 342.283H160.786V340.057C160.786 319.629 176.323 303 195.433 303C214.543 303 230.08 319.629 230.08 340.057V342.283ZM163.621 339.448H227.231C226.933 320.862 212.785 305.835 195.419 305.835C178.053 305.835 163.905 320.862 163.607 339.448H163.621Z" fill="#CBBAA1"/>
<path d="M221.291 340.553H219.66C219.66 325.64 208.787 313.519 195.433 313.519C182.079 313.519 171.206 325.64 171.206 340.553H169.575C169.575 324.718 181.172 311.832 195.433 311.832C209.694 311.832 221.291 324.718 221.291 340.553V340.553Z" fill="#CBBAA1"/>
<path d="M213.267 340.553H211.637C211.637 330.375 204.293 322.11 195.277 322.11C186.261 322.11 178.918 330.389 178.918 340.553H177.287C177.287 329.453 185.354 320.423 195.277 320.423C205.201 320.423 213.267 329.453 213.267 340.553Z" fill="#CBBAA1"/>
<path d="M205.257 340.553H203.627C203.627 335.124 199.955 330.701 195.433 330.701C190.911 330.701 187.239 335.124 187.239 340.553H185.609C185.609 334.188 190.018 329.014 195.433 329.014C200.849 329.014 205.257 334.188 205.257 340.553Z" fill="#CBBAA1"/>
<path d="M202.819 362.073H136.36V361.265C136.36 341.616 151.274 325.625 169.59 325.625C187.905 325.625 202.819 341.616 202.819 361.265V362.073Z" fill="#436D61"/>
<path d="M204.237 363.491H134.942V361.265C134.942 340.837 150.48 324.208 169.59 324.208C188.699 324.208 204.237 340.837 204.237 361.265V363.491ZM137.778 360.655H201.387C201.089 342.07 186.927 327.043 169.575 327.043C152.223 327.043 138.061 342.07 137.763 360.655H137.778Z" fill="#CBBAA1"/>
<path d="M195.433 361.761H193.803C193.803 346.848 182.929 334.727 169.575 334.727C156.221 334.727 145.348 346.848 145.348 361.761H143.718C143.718 345.926 155.314 333.04 169.575 333.04C183.837 333.04 195.419 345.926 195.419 361.761H195.433Z" fill="#CBBAA1"/>
<path d="M187.409 361.761H185.779C185.779 351.583 178.436 343.318 169.419 343.318C160.403 343.318 153.06 351.597 153.06 361.761H151.43C151.43 350.661 159.496 341.631 169.419 341.631C179.343 341.631 187.409 350.661 187.409 361.761Z" fill="#CBBAA1"/>
<path d="M179.414 361.761H177.783C177.783 356.332 174.112 351.908 169.59 351.908C165.067 351.908 161.396 356.332 161.396 361.761H159.765C159.765 355.396 164.174 350.221 169.59 350.221C175.005 350.221 179.414 355.396 179.414 361.761V361.761Z" fill="#CBBAA1"/>
<path d="M257.582 362.073H191.123V361.265C191.123 341.616 206.037 325.625 224.353 325.625C242.669 325.625 257.582 341.616 257.582 361.265V362.073Z" fill="#436D61"/>
<path d="M259 363.491H189.706V361.265C189.706 340.837 205.243 324.208 224.353 324.208C243.463 324.208 259 340.837 259 361.265V363.491ZM192.541 360.655H256.151C255.853 342.07 241.691 327.043 224.339 327.043C206.987 327.043 192.825 342.07 192.527 360.655H192.541Z" fill="#CBBAA1"/>
<path d="M250.196 361.761H248.566C248.566 346.848 237.693 334.727 224.338 334.727C210.984 334.727 200.111 346.848 200.111 361.761H198.481C198.481 345.926 210.077 333.04 224.338 333.04C238.6 333.04 250.196 345.926 250.196 361.761Z" fill="#CBBAA1"/>
<path d="M242.173 361.761H240.542C240.542 351.583 233.199 343.318 224.183 343.318C215.166 343.318 207.823 351.597 207.823 361.761H206.193C206.193 350.661 214.259 341.631 224.183 341.631C234.106 341.631 242.173 350.661 242.173 361.761Z" fill="#CBBAA1"/>
<path d="M234.177 361.761H232.547C232.547 356.332 228.875 351.908 224.353 351.908C219.831 351.908 216.159 356.332 216.159 361.761H214.529C214.529 355.396 218.937 350.221 224.353 350.221C229.768 350.221 234.177 355.396 234.177 361.761Z" fill="#CBBAA1"/>
</g>
</g>
</g>
</svg>
