<svg width="155" height="56" viewBox="0 0 155 56" fill="none" xmlns="http://www.w3.org/2000/svg">
<path d="M31.5562 40.1543H21.6375V41.7389H31.5562V40.1543Z" fill="#999999"/>
<path d="M27.8451 38.7573H25.4192V41.2622H27.8451V38.7573Z" fill="#999999"/>
<path d="M64.9986 40.1543H55.0798V41.7389H64.9986V40.1543Z" fill="#999999"/>
<path d="M61.2875 38.7573H58.8616V41.2622H61.2875V38.7573Z" fill="#999999"/>
<path d="M98.8858 40.1543H88.967V41.7389H98.8858V40.1543Z" fill="#999999"/>
<path d="M95.1801 38.7573H92.7488V41.2622H95.1801V38.7573Z" fill="#999999"/>
<path d="M131.844 47.9272H129.418V55.9946H131.844V47.9272Z" fill="#999999"/>
<path d="M138.111 47.5298H123.079V49.1089H138.111V47.5298Z" fill="#999999"/>
<path d="M37.7606 43.3398H35.2095V44.9245H37.7606V43.3398Z" fill="#999999"/>
<path d="M35.7923 39.5684H33.3691V50.7069H35.7923V39.5684Z" fill="#999999"/>
<path d="M26.6907 40.3174C24.066 40.3174 22.1438 42.147 22.1438 44.4532C22.1438 46.7593 24.066 48.5889 26.6907 48.5889C29.3154 48.5889 31.2403 46.7565 31.2403 44.4532C31.2403 42.1498 29.3181 40.3174 26.6907 40.3174ZM26.6907 47.165C25.4573 47.165 24.5398 45.9751 24.5398 44.4504C24.5398 42.9257 25.4573 41.7332 26.6907 41.7332C27.9241 41.7332 28.8443 42.9312 28.8443 44.4504C28.8443 45.9697 27.9241 47.165 26.6907 47.165Z" fill="#999999"/>
<path d="M71.204 43.3398H68.6555V44.9245H71.204V43.3398Z" fill="#999999"/>
<path d="M69.2411 39.5684H66.8152V50.7069H69.2411V39.5684Z" fill="#999999"/>
<path d="M60.1358 40.3174C57.5111 40.3174 55.5889 42.147 55.5889 44.4532C55.5889 46.7593 57.5138 48.5889 60.1358 48.5889C62.7577 48.5889 64.6854 46.7565 64.6854 44.4532C64.6854 42.1498 62.7632 40.3174 60.1358 40.3174ZM60.1358 47.165C58.9051 47.165 57.9848 45.9751 57.9848 44.4504C57.9848 42.9257 58.9051 41.7332 60.1358 41.7332C61.3664 41.7332 62.2867 42.9312 62.2867 44.4504C62.2867 45.9697 61.3719 47.165 60.1358 47.165Z" fill="#999999"/>
<path d="M47.1141 46.1711H44.6882V50.8024H47.1141V46.1711Z" fill="#999999"/>
<path d="M53.6758 45.771H38.3362V47.3556H53.6758V45.771Z" fill="#999999"/>
<path d="M86.1373 50.7424H72.5156V52.3243H86.1373V50.7424Z" fill="#999999"/>
<path d="M86.7095 39.4216H84.3245V55.9947H86.7095V39.4216Z" fill="#999999"/>
<path d="M77.6892 39.4407C75.0482 39.4407 72.7856 41.1941 72.7856 43.8133C72.7856 46.4325 75.0482 48.186 77.6892 48.186C80.3302 48.186 82.5873 46.4298 82.5873 43.8133C82.5873 41.1968 80.3275 39.4407 77.6892 39.4407ZM77.6892 46.7375C76.2734 46.7375 75.247 45.5313 75.247 43.8133C75.247 42.0953 76.2734 40.8891 77.6892 40.8891C79.105 40.8891 80.1315 42.098 80.1315 43.8133C80.1315 45.5286 79.105 46.7375 77.6892 46.7375Z" fill="#999999"/>
<path d="M104.944 42.719H102.39V44.3063H104.944V42.719Z" fill="#999999"/>
<path d="M103.127 39.3972H100.699V48.7742H103.127V39.3972Z" fill="#999999"/>
<path d="M94.0196 40.3174C91.3949 40.3174 89.5081 42.0136 89.5081 44.2163C89.5081 46.4189 91.3949 48.1152 94.0196 48.1152C96.6442 48.1152 98.5338 46.4217 98.5338 44.2163C98.5338 42.0109 96.6497 40.3174 94.0196 40.3174ZM94.0196 46.6939C92.7889 46.6939 91.9067 45.5395 91.9067 44.2163C91.9067 42.893 92.7862 41.7359 94.0196 41.7359C95.2529 41.7359 96.1351 42.8958 96.1351 44.2163C96.1351 45.5368 95.2529 46.6939 94.0196 46.6939Z" fill="#999999"/>
<path d="M120.836 39.5684H118.451V50.8648H120.836V39.5684Z" fill="#999999"/>
<path d="M120.043 41.7578H115V43.2907H120.043V41.7578Z" fill="#999999"/>
<path d="M120.043 44.9866H115V46.5194H120.043V44.9866Z" fill="#999999"/>
<path d="M111.148 39.5876C108.401 39.5876 106.245 41.4445 106.245 43.963C106.245 46.4815 108.401 48.3357 111.148 48.3357C113.895 48.3357 116.005 46.4761 116.005 43.963C116.005 41.45 113.887 39.5876 111.148 39.5876ZM111.145 46.8817C109.632 46.8817 108.706 45.5776 108.706 43.9603C108.706 42.343 109.632 41.0307 111.145 41.0307C112.659 41.0307 113.588 42.343 113.588 43.9603C113.588 45.5776 112.662 46.8817 111.145 46.8817Z" fill="#999999"/>
<path d="M145.83 47.5569H143.445V50.7887H145.83V47.5569Z" fill="#999999"/>
<path d="M154.356 39.5684H151.97V52.2153H154.356V39.5684Z" fill="#999999"/>
<path d="M150.62 46.9553H139.868V48.4882H150.62V46.9553Z" fill="#999999"/>
<path d="M153.565 49.4629H148.523V50.9985H153.565V49.4629Z" fill="#999999"/>
<path d="M144.793 39.3262C142.067 39.3262 140.311 40.8237 140.311 42.7568C140.311 44.6899 142.067 46.1928 144.793 46.1928C147.518 46.1928 149.274 44.6926 149.274 42.7568C149.274 40.8209 147.518 39.3262 144.793 39.3262ZM144.793 44.777C143.494 44.777 142.737 43.7696 142.737 42.7595C142.737 41.7494 143.494 40.7447 144.793 40.7447C146.092 40.7447 146.851 41.7521 146.851 42.7595C146.851 43.7669 146.092 44.777 144.793 44.777Z" fill="#999999"/>
<path d="M27.132 54.4156C26.8107 54.4156 26.5956 54.2141 26.5956 53.8819V50.2798H24.1697V54.0779C24.1697 55.1616 24.8966 56.0002 26.0919 56.0002H35.7765V54.4183H27.132V54.4156Z" fill="#999999"/>
<path d="M49.1499 41.4662C49.4711 41.4662 49.6862 41.6677 49.6862 41.9998V45.9804H52.1149V41.8038C52.1149 40.7175 51.3879 39.8816 50.1926 39.8816H39.9553V41.4635H49.1526L49.1499 41.4662Z" fill="#999999"/>
<path d="M49.1499 51.7254C49.4711 51.7254 49.6862 51.9296 49.6862 52.2618V55.9919H52.1149V52.0657C52.1149 50.9794 51.3879 50.1462 50.1926 50.1462H39.9553V51.7254H49.1526H49.1499Z" fill="#999999"/>
<path d="M100.189 51.2328C100.511 51.2328 100.726 51.4342 100.726 51.7691V55.992H103.149V51.5731C103.149 50.4867 102.422 49.6509 101.229 49.6509H91.2971V51.2328H100.189Z" fill="#999999"/>
<path d="M60.5746 54.4156C60.256 54.4156 60.0409 54.2141 60.0409 53.8819V50.2798H57.6123V54.0779C57.6123 55.1616 58.3393 56.0002 59.5318 56.0002H69.2191V54.4183H60.5719L60.5746 54.4156Z" fill="#999999"/>
<path d="M112.119 54.4154C111.797 54.4154 111.585 54.2139 111.585 53.8818V50.1653H109.156V54.0751C109.156 55.1587 109.886 55.9973 111.078 55.9973H120.763V54.4154H112.116H112.119Z" fill="#999999"/>
<path d="M145.64 54.4154C145.319 54.4154 145.107 54.2139 145.107 53.8817V51.9758H142.681V54.075C142.681 55.1587 143.408 55.9972 144.603 55.9972H154.288V54.4154H145.64Z" fill="#999999"/>
<path d="M133.589 41.3739C133.908 41.3739 134.123 41.5754 134.123 41.9075V47.7096H136.549V41.7142C136.549 40.6306 135.819 39.792 134.626 39.792H124.697V41.3712H133.589V41.3739Z" fill="#999999"/>
<path d="M35.6435 22.7422C31.2518 21.7103 29.5474 16.51 28.6135 11.9113C26.7239 2.57524 19.5088 0.0131836 14.5208 0.0131836C11.1883 0.0131836 8.96382 0.928008 7.26758 1.86189C7.26758 1.86189 10.2462 0.416142 13.9572 1.48888C17.867 2.62425 20.3556 5.85608 21.0471 11.1844C22.0681 19.0502 25.5995 24.3976 31.0993 25.3723C31.6738 25.4731 32.2673 25.5303 32.8745 25.5303C34.7014 25.5303 37.6637 24.4684 39.5505 22.1732C38.5186 22.7504 36.5202 22.9519 35.6408 22.7449L35.6435 22.7422Z" fill="#999999"/>
<path d="M35.6431 22.7395C31.2514 21.7076 29.547 16.5073 28.6158 11.9086C26.7235 2.57524 19.5084 0.0131836 14.5204 0.0131836C11.4411 0.0131836 8.87085 0.876277 7.27808 1.85372C7.96964 1.5515 9.29287 1.07776 10.6814 1.07776C15.6966 1.07776 20.0393 3.39749 21.0495 11.1844C22.0705 19.0475 25.6018 24.3949 31.1016 25.3669C31.6761 25.4704 32.2697 25.5248 32.8768 25.5248C34.7038 25.5248 37.6633 24.4657 39.5529 22.1677C38.521 22.7422 36.5225 22.9437 35.6431 22.7368V22.7395Z" fill="#999999"/>
<path d="M7.21241 12.8804C7.21241 7.37509 9.42868 3.37273 12.8429 2.32994C12.1977 1.95693 11.1685 1.7854 10.2537 1.7854C4.02958 1.78812 0 8.19734 0 13.9014C0 25.8812 9.87793 31.4573 18.5933 31.4573C19.7913 31.4573 21.4984 31.1524 22.484 30.7058C13.039 30.4989 7.21241 22.9843 7.21241 12.8831V12.8804ZM31.5152 29.3826C31.4444 29.418 31.3736 29.4534 31.3028 29.4861C31.4335 29.4262 31.5587 29.369 31.6731 29.3118C31.6213 29.3363 31.5669 29.3581 31.5124 29.3826H31.5152Z" fill="#999999"/>
<path d="M56.1994 6.24807L46.8633 0.12746C46.4713 -0.142087 46.248 0.0294426 46.3433 0.514082C46.6537 1.99795 46.8878 3.83304 46.8878 6.12555C46.8878 24.9965 29.7022 32.3696 18.482 32.1708C17.5508 32.1518 16.6197 32.0674 15.7048 31.9149C17.3875 32.5792 21.1475 33.0639 24.3358 33.0639C42.9181 33.0639 54.898 20.8471 56.6133 6.99137C56.6242 6.66192 56.5016 6.44411 56.2022 6.24535L56.1994 6.24807Z" fill="#999999"/>
</svg>
